<svg class="icon" style="width: 40px; height: 40px;vertical-align: middle;fill: white;overflow: hidden;" viewBox="0 0 1024 1024" version="1.1" xmlns="http://www.w3.org/2000/svg">
    <path d="M816 816m-32 0a32 32 0 1 0 64 0 32 32 0 1 0-64 0ZM512 968a456 456 0 1 1 395.76-229.36 32 32 0 0 1-55.52-32 392 392 0 1 0-145.44 145.44 32 32 0 0 1 32 55.52A456 456 0 0 1 512 968zM704 544H320a32 32 0 0 1 0-64h384a32 32 0 0 1 0 64zM512 736a32 32 0 0 1-32-32V320a32 32 0 0 1 64 0v384a32 32 0 0 1-32 32z"/>
</svg>
